<?xml version="1.0" encoding="utf-8"?>
<!-- Generator: Adobe Illustrator 27.6.1, SVG Export Plug-In . SVG Version: 6.00 Build 0)  -->
<svg version="1.1" id="Capa_1" xmlns="http://www.w3.org/2000/svg" xmlns:xlink="http://www.w3.org/1999/xlink" x="0px" y="0px"
	 viewBox="0 0 1041.9 207.5" style="enable-background:new 0 0 1041.9 207.5;" xml:space="preserve">
<style type="text/css">
	.st0{enable-background:new    ;}
	.st1{fill:none;}
</style>
<g>
	<g class="st0">
		<path d="M15.8,41.2h64.5v8.3C70.8,46.3,45,43,28.1,43c-3.3,0-4.9,1.3-4.9,6.3v29.4c0,2.8,1.9,4.7,4.7,4.7h43.4v7.8
			c-11-2.7-32.9-5.6-43.3-5.6c-2.8,0-4.7,1.3-4.7,4.1L23.2,126c0,5,1.6,6.3,4.9,6.3c16.9,0,42.7-3.3,52.2-6.4v8.3H15.8V41.2z"/>
		<path d="M94.1,41.2l36.3,81.5c0.6,1.3,1.2,2,1.8,2c0.7,0,1.2-0.7,1.7-2.2l23.4-81.2h8.2l-32.9,93h-5l-41.5-93H94.1z"/>
		<path d="M172.8,41.2h64.5v8.3c-9.5-3.2-35.3-6.4-52.2-6.4c-3.3,0-4.9,1.3-4.9,6.3v29.4c0,2.8,1.9,4.7,4.7,4.7h43.4v7.8
			c-11-2.7-32.9-5.6-43.3-5.6c-2.8,0-4.7,1.3-4.7,4.1l-0.1,36.3c0,5,1.6,6.3,4.9,6.3c16.9,0,42.7-3.3,52.2-6.4v8.3h-64.5V41.2z"/>
		<path d="M250.3,134.2v-93h7.4V126c0,5,1.6,6.3,4.9,6.3c16.9,0,42.7-3.3,52.2-6.4v8.3H250.3z"/>
		<path d="M288.4,41.2h7.9L327,85.6c0.7,1.1,1.5,1.7,2.2,1.7c0.8,0,1.7-0.6,2.4-1.9l25.3-44.3h8l-32,45.9c-1.6,2.2-2.5,5.8-2.5,8.6
			v38.6H323V95.6c0-2.8-0.9-6.3-2.5-8.6L288.4,41.2z"/>
		<path d="M374.2,41.2h7.6c18.9,26.8,38.1,54,59.4,83.9c0.7,0.9,1.3,1.4,1.8,1.4c0.7,0,1-0.8,0.9-2.4l-5.6-82.9h7.8v93h-7.4
			C419,106.4,402.3,83,379.2,50.3c-0.7-0.9-1.3-1.4-1.8-1.4c-0.7,0-1,0.8-0.9,2.4l5.6,82.9h-7.8V41.2z"/>
		<path d="M489,134.2v-93h40.8c22.1,0,24.7,14.4,24.7,20.6c0,5.5-4,17.2-19,19.5c20.7,1.7,25.4,17.6,25.4,26.4
			c0,9.3-5.3,26.5-29,26.5H489z M501.2,132.3h22.3c18.6,0,28.4-9.5,28.4-24.7s-9.8-24.9-28.4-24.9h-22.5c-2.8,0-4.7,1.9-4.7,4.7
			c-0.1,19.4-0.1,37.3-0.1,38.6C496.3,131,497.9,132.3,501.2,132.3z M496.4,76.2c0,2.8,1.9,4.7,4.7,4.7h23.1
			c14.6,0,22.5-8.9,22.5-19.4c0-10.4-7.9-18.4-22.5-18.4h-22.9c-2.9,0-4.5,0.9-4.8,4.5V76.2z"/>
		<path d="M569.7,87.7c0-29,20.8-48.4,46.4-48.4c25.6,0,46.5,19.4,46.5,48.4c0,29-20.9,48.4-46.5,48.4
			C590.6,136.1,569.7,116.7,569.7,87.7z M616.2,134.2c21.5,0,39.1-18.6,39.1-46.5c0-27.9-17.6-46.5-39.1-46.5s-39,18.6-39,46.5
			C577.2,115.6,594.7,134.2,616.2,134.2z"/>
		<path d="M718.4,39.3c16.8,0,35.1,6.1,35.1,18.1c0,5.3-4.2,5.1-4.2,5.1c-1.4-10.4-15-21.4-30.9-21.4c-21.5,0-39,18.6-39,46.5
			c0,27.9,17.5,46.5,39,46.5c10.2,0,27.7-7.3,27.7-19.4v-31h8v40.5c-4.6,6.9-19.8,11.8-35.7,11.8c-25.6,0-46.4-19.4-46.4-48.4
			C672,58.6,692.8,39.3,718.4,39.3z"/>
		<path d="M760.9,134.2l31.7-88.7l-2-4.4h8.2l41.5,93h-8.2l-6.8-15.2c-4.6-10.2-18.5-16.5-29-16.5c-6,0-11.8,1.9-17.2,5.8
			c-2,1.5-4.3,5.5-5.1,8.5l-4.9,17.4H760.9z M779.6,101.4c0.5,0,1.1-0.3,2-0.7c3.7-2,7.7-3,11.8-3c8.7,0,17.7,4.2,24.8,10
			c2.1,1.8,2.7,1.3,1.6-1.2l-24-53.8c-0.6-1.3-1.2-2-1.8-2c-0.7,0-1.2,0.7-1.7,2.2l-13.2,46C778.7,100.6,778.8,101.4,779.6,101.4z"
			/>
		<path d="M877.4,41.2c24.9,0,44,19.5,44,46.5c0,27-19.1,46.5-44,46.5H848v-93H877.4z M855.4,126.5c0,5,1.6,6.3,4.9,6.3
			c2.9,0,8.7,0.1,11.3,0.1c29.4,0,41.9-23.6,41.9-45.2c0-21.6-12.5-44.8-41.9-44.8c-2.5,0-8.4,0.1-11.3,0.1c-2.9,0-4.5,0.9-4.8,4.5
			C855.5,54,855.4,114.7,855.4,126.5z"/>
		<path d="M930.8,87.7c0-29,20.8-48.4,46.4-48.4c25.6,0,46.5,19.4,46.5,48.4c0,29-20.9,48.4-46.5,48.4
			C951.6,136.1,930.8,116.7,930.8,87.7z M977.2,134.2c21.5,0,39.1-18.6,39.1-46.5c0-27.9-17.6-46.5-39.1-46.5s-39,18.6-39,46.5
			C938.2,115.6,955.7,134.2,977.2,134.2z"/>
	</g>
</g>
<g class="st0">
	<path d="M261.5,172.3c0,2.8-1.1,4.9-3.3,6.4s-5.1,2.2-8.9,2.2h-4v12.9h-4.5v-29h10c3.1,0,5.7,0.7,7.7,2
		C260.5,168.2,261.5,170,261.5,172.3z M245.3,179.6h4.1c1.5,0,2.7-0.3,3.7-0.8c1-0.5,1.8-1.2,2.2-2c0.8-1.5,1.3-2.9,1.3-4.2
		c0-0.7-0.2-1.5-0.6-2.4c-0.7-1.9-2.3-3.2-4.6-3.8c-2.2,0-4.3,0.2-6.2,0.7V179.6z"/>
	<path d="M289,164.8v17.8c0,2.7-0.3,4.8-0.9,6.1c-0.3,0.6-0.7,1.3-1.3,2.1c-0.6,0.8-1.3,1.4-2.1,1.9c-2,1.1-4.6,1.7-7.7,1.7
		c-7.7,0-11.5-3.7-11.5-11.2v-18.3h4.7v18.7c0,0.8,0,1.5,0,2.1c0,0.5,0.2,1.3,0.5,2.2c0.3,1,0.7,1.7,1.2,2.3
		c0.5,0.6,1.3,1.1,2.4,1.6c1.1,0.5,2.4,0.7,3.9,0.7c5.8,0,8.7-2.9,8.7-8.8v-18.8H289z"/>
	<path d="M296.6,193.8v-29h8.8c3.6,0,6.4,0.6,8.5,1.7s3.2,2.8,3.2,5.1c0,1.6-0.6,3-1.8,4.2c-1.2,1.2-2.9,2.1-5,2.7
		c2.8,0.5,4.9,1.4,6.4,2.7c1.4,1.3,2.2,2.7,2.2,4.3c0,1.5-0.4,2.9-1.3,4c-0.8,1.1-1.9,1.9-3.2,2.5c-2.6,1.2-5.3,1.8-8.1,1.8H296.6z
		 M301.1,178.1h3.3c2.8,0,4.8-0.6,6-1.8s1.8-2.7,1.8-4.4c0-1.2-0.4-2.3-1.3-3.3c-0.9-1-2.2-1.7-3.9-2.2c-2.1,0-4.1,0.3-6,0.9V178.1z
		 M301.1,179.3v12.5c1,0.3,2.5,0.4,4.6,0.4c2.1,0,3.9-0.5,5.5-1.6c1.6-1.1,2.4-2.6,2.4-4.5c0-1.9-0.9-3.5-2.6-4.8
		c-1.8-1.3-3.9-1.9-6.4-1.9H301.1z"/>
	<path d="M326.5,193.8v-29h4.5v26.6c1.9,0.5,3.4,0.8,4.5,0.8l8.4-1.4l-0.6,2.9H326.5z"/>
	<path d="M353.3,164.8v29H349v-29H353.3z"/>
	<path d="M375.8,194.3c-4.8,0-8.8-1.2-12.1-3.7s-4.9-6-4.9-10.6c0-2.7,0.5-5.1,1.6-7.2c1.1-2.1,2.5-3.8,4.3-4.9
		c3.6-2.5,7.5-3.7,12-3.7c2.6,0,5.2,0.4,8,1.3l-0.5,3c-1.5-0.6-2.6-1-3.4-1.3c-2.3-0.8-4.7-1.2-7-1.2c-3.2,0.7-5.7,2.2-7.5,4.6
		c-1.7,2.3-2.6,5.3-2.6,8.8c0,4.3,1.2,7.6,3.6,9.9c2.4,2.3,5.5,3.5,9.4,3.5c3.9,0,6.8-0.8,8.7-2.4v2.4
		C382.7,193.8,379.5,194.3,375.8,194.3z"/>
	<path d="M395.2,164.8v29H391v-29H395.2z"/>
	<path d="M403.6,193.8v-29h8.8c3.6,0,6.9,0.7,9.9,2.2c1.6,0.8,3,1.7,4.1,2.8c1.2,1.1,2.1,2.6,2.8,4.4c0.7,1.8,1.1,3.7,1.1,5.9
		c0,3.1-0.8,5.7-2.5,7.8c-3,3.9-7.9,5.9-14.6,5.9H403.6z M412.3,192.3c3.9,0,7.1-1.1,9.5-3.3s3.6-5.4,3.6-9.6c0-3.3-0.9-6.1-2.8-8.4
		c-1.9-2.3-4.3-3.9-7.3-4.6c-2.7,0-5,0.3-7,0.9v24.6C409.1,192.2,410.5,192.3,412.3,192.3z"/>
	<path d="M432.7,193.8l13.8-29.7h0.7l13.8,29.7h-5.1l-3.5-7.9h-13.8l-3.4,7.9H432.7z M439.3,184.2h12.3l-6.1-14.2L439.3,184.2z"/>
	<path d="M465.6,193.8v-29h8.8c3.6,0,6.9,0.7,9.9,2.2c1.6,0.8,3,1.7,4.1,2.8c1.2,1.1,2.1,2.6,2.8,4.4c0.7,1.8,1.1,3.7,1.1,5.9
		c0,3.1-0.8,5.7-2.5,7.8c-3,3.9-7.9,5.9-14.6,5.9H465.6z M474.3,192.3c3.9,0,7.1-1.1,9.5-3.3s3.6-5.4,3.6-9.6c0-3.3-0.9-6.1-2.8-8.4
		c-1.9-2.3-4.3-3.9-7.3-4.6c-2.7,0-5,0.3-7,0.9v24.6C471.1,192.2,472.5,192.3,474.3,192.3z"/>
	<path d="M517.4,194.4c-2.2,0-4.2-0.5-6.2-1.6c-1-0.6-1.8-1.4-2.5-2.5s-1-2.4-1-3.8c0-1.9,0.8-3.6,2.3-5.1c1.6-1.4,3.9-2.4,7.1-2.9
		c-1.2-2.5-1.8-4.8-1.8-6.8c0-1.3,0.4-2.7,1.2-4.3c0.5-0.9,1.3-1.7,2.4-2.3c1.1-0.6,2.3-0.9,3.4-0.9c1.2,0,2.4,0.1,3.8,0.4
		c1.3,0.2,2.3,0.5,3,0.8l-0.5,2.8c-2-1.4-4.4-2.1-7.3-2.1c-1.5,0.9-2.2,2.5-2.2,4.9c0,2.3,0.8,5,2.3,8c1.5,3,3.6,5.7,6.1,8.1
		c1.1-1.7,2.2-4.2,3.3-7.6c-0.8,0-1.4,0-1.7,0v-1.4c3.1-0.1,5.7-0.4,7.9-1l-0.8,2.2c-0.6,0.1-1.6,0.2-3.2,0.2
		c-1.2,3.6-2.7,6.5-4.3,8.7c3.5,2.9,7.1,4.3,10.8,4.3l-2,1.4c-3.6,0-7.2-1.2-10.7-3.5C524.3,193,521.1,194.4,517.4,194.4z
		 M518.7,192.3c2.7,0,5-1,7-3c-3.3-2.6-6-5.7-7.9-9.5c-2.1,0.6-3.6,1.4-4.6,2.6c-1,1.2-1.5,2.5-1.5,3.9c0,2,0.7,3.5,2,4.4
		C515.1,191.8,516.7,192.3,518.7,192.3z"/>
	<path d="M574,186.9l10.2-22.1h4.7l1.7,29H586l-1.3-24.9h-0.2l-11.7,24.9h-0.6l-11.5-23.9h-0.2l-1.3,23.9h-2l1.7-29h4.3L574,186.9z"
		/>
	<path d="M603.6,193.8h-4.7v-29h4.7v14.3l14.3-14.3h3.1l-14.5,13.5l16.5,15.5l-5.9,0.6l-13.4-14.8V193.8z"/>
	<path d="M637.6,193.8h-4.5v-26.9c-1.1-0.2-2.1-0.4-3.2-0.4l-6.3,1.4l-0.3-3.1h23.9l-0.2,3.1l-6.3-1.4c-1.1,0-2.1,0.1-3.2,0.4V193.8
		z"/>
	<path d="M663.5,193.8v-29h8.8c3.6,0,6.9,0.7,9.9,2.2c1.6,0.8,3,1.7,4.1,2.8c1.2,1.1,2.1,2.6,2.8,4.4c0.7,1.8,1.1,3.7,1.1,5.9
		c0,3.1-0.8,5.7-2.5,7.8c-3,3.9-7.9,5.9-14.6,5.9H663.5z M672.2,192.3c3.9,0,7.1-1.1,9.5-3.3s3.6-5.4,3.6-9.6c0-3.3-0.9-6.1-2.8-8.4
		c-1.9-2.3-4.3-3.9-7.3-4.6c-2.7,0-5,0.3-7,0.9v24.6C669,192.2,670.4,192.3,672.2,192.3z"/>
	<path d="M700.6,164.8v29h-4.3v-29H700.6z"/>
	<path d="M728.3,181.3h4.5v11.5c-2.7,1-5.9,1.5-9.6,1.5c-4.5,0-8.5-1.1-11.7-3.4c-1.6-1.1-2.9-2.6-3.8-4.5c-1-1.9-1.4-3.9-1.4-6.2
		c0-2.2,0.4-4.3,1.1-6.1c0.7-1.8,1.7-3.3,2.9-4.5c1.2-1.2,2.6-2.2,4.1-3.1c2.9-1.6,6.2-2.4,9.7-2.4c1.4,0,2.8,0.1,4.4,0.4
		c1.6,0.3,2.8,0.6,3.6,0.9l-0.5,2.9c-4.2-1.7-7.6-2.5-10.4-2.5c-3.1,0.8-5.6,2.3-7.4,4.7c-1.8,2.4-2.7,5.3-2.7,8.7
		c0,4.3,1.2,7.6,3.6,9.9c2.4,2.3,5.5,3.5,9.4,3.5c1.5,0,3-0.1,4.2-0.4V181.3z"/>
	<path d="M744.7,164.8v29h-4.3v-29H744.7z"/>
	<path d="M763.5,193.8H759v-26.9c-1.1-0.2-2.1-0.4-3.2-0.4l-6.3,1.4l-0.3-3.1h23.9l-0.2,3.1l-6.3-1.4c-1.1,0-2.1,0.1-3.2,0.4V193.8z
		"/>
	<path d="M771.4,193.8l13.8-29.7h0.7l13.8,29.7h-5.1l-3.5-7.9h-13.8l-3.4,7.9H771.4z M778,184.2h12.3l-6.1-14.2L778,184.2z"/>
	<path d="M804.2,193.8v-29h4.5v26.6c1.9,0.5,3.4,0.8,4.5,0.8l8.4-1.4l-0.6,2.9H804.2z"/>
</g>
<polygon class="st1" points="-1087.1,481.4 -1083.8,481.4 -1083.8,481.4 "/>
</svg>
